<svg width="27" height="24" viewBox="0 0 27 24" fill="none" xmlns="http://www.w3.org/2000/svg">
<path d="M1 0.25C0.585786 0.25 0.25 0.585786 0.25 1C0.25 1.41421 0.585786 1.75 1 1.75V0.25ZM5 1L5.73859 0.869661C5.67534 0.511268 5.36393 0.25 5 0.25V1ZM8 18L7.26141 18.1303C7.32466 18.4887 7.63607 18.75 8 18.75V18ZM24 18.75C24.4142 18.75 24.75 18.4142 24.75 18C24.75 17.5858 24.4142 17.25 24 17.25V18.75ZM8 11.9167C7.58579 11.9167 7.25 12.2525 7.25 12.6667C7.25 13.0809 7.58579 13.4167 8 13.4167V11.9167ZM23.59 12.6667L23.5905 11.9167H23.59V12.6667ZM24.0806 12.2648L24.816 12.412L24.8161 12.4119L24.0806 12.2648ZM25.8806 3.26479L25.1452 3.1176L25.1452 3.1177L25.8806 3.26479ZM25.39 2.66667V3.41667L25.3905 3.41667L25.39 2.66667ZM6 1.91667C5.58579 1.91667 5.25 2.25245 5.25 2.66667C5.25 3.08088 5.58579 3.41667 6 3.41667V1.91667ZM9.25 22C9.25 22.1381 9.13807 22.25 9 22.25V23.75C9.9665 23.75 10.75 22.9665 10.75 22H9.25ZM9 22.25C8.86193 22.25 8.75 22.1381 8.75 22H7.25C7.25 22.9665 8.0335 23.75 9 23.75V22.25ZM8.75 22C8.75 21.8619 8.86193 21.75 9 21.75V20.25C8.0335 20.25 7.25 21.0335 7.25 22H8.75ZM9 21.75C9.13807 21.75 9.25 21.8619 9.25 22H10.75C10.75 21.0335 9.9665 20.25 9 20.25V21.75ZM23.25 22C23.25 22.1381 23.1381 22.25 23 22.25V23.75C23.9665 23.75 24.75 22.9665 24.75 22H23.25ZM23 22.25C22.8619 22.25 22.75 22.1381 22.75 22H21.25C21.25 22.9665 22.0335 23.75 23 23.75V22.25ZM22.75 22C22.75 21.8619 22.8619 21.75 23 21.75V20.25C22.0335 20.25 21.25 21.0335 21.25 22H22.75ZM23 21.75C23.1381 21.75 23.25 21.8619 23.25 22H24.75C24.75 21.0335 23.9665 20.25 23 20.25V21.75ZM1 1.75H5V0.25H1V1.75ZM4.26141 1.13034L7.26141 18.1303L8.73859 17.8697L5.73859 0.869661L4.26141 1.13034ZM8 18.75H24V17.25H8V18.75ZM8 13.4167H23.59V11.9167H8V13.4167ZM23.5895 13.4167C23.8786 13.4169 24.1588 13.3169 24.3824 13.1337L23.4319 11.9733C23.4767 11.9366 23.5327 11.9166 23.5905 11.9167L23.5895 13.4167ZM24.3824 13.1337C24.6061 12.9505 24.7593 12.6955 24.816 12.412L23.3452 12.1176C23.3566 12.0609 23.3872 12.0099 23.4319 11.9733L24.3824 13.1337ZM24.8161 12.4119L26.6161 3.41188L25.1452 3.1177L23.3452 12.1177L24.8161 12.4119ZM26.616 3.41198C26.6524 3.23055 26.6479 3.04332 26.6031 2.86381L25.1478 3.22724C25.1388 3.19133 25.1379 3.15389 25.1452 3.1176L26.616 3.41198ZM26.6031 2.86381C26.5583 2.68429 26.4741 2.51696 26.3568 2.37391L25.1971 3.32522C25.1736 3.29661 25.1568 3.26315 25.1478 3.22724L26.6031 2.86381ZM26.3568 2.37391C26.2395 2.23086 26.0918 2.11563 25.9245 2.03656L25.2835 3.39269C25.25 3.37687 25.2205 3.35383 25.1971 3.32522L26.3568 2.37391ZM25.9245 2.03656C25.7573 1.95749 25.5745 1.91654 25.3895 1.91667L25.3905 3.41667C25.3535 3.41669 25.317 3.4085 25.2835 3.39269L25.9245 2.03656ZM25.39 1.91667H6V3.41667H25.39V1.91667Z" fill="currentColor"/>
</svg>
