<?xml version="1.0"?>
<svg width="27" height="24" xmlns="http://www.w3.org/2000/svg" xmlns:svg="http://www.w3.org/2000/svg">
 <g class="layer">
  <path d="m1,0.25c-0.41,0 -0.75,0.34 -0.75,0.75c0,0.41 0.34,0.75 0.75,0.75l0,-1.5zm4,0.75l0.74,-0.13c-0.06,-0.36 -0.38,-0.62 -0.74,-0.62l0,0.75zm3,17l-0.74,0.13c0.06,0.36 0.38,0.62 0.74,0.62l0,-0.75zm16,0.75c0.41,0 0.75,-0.34 0.75,-0.75c0,-0.41 -0.34,-0.75 -0.75,-0.75l0,1.5zm-16,-6.83c-0.41,0 -0.75,0.33 -0.75,0.75c0,0.41 0.34,0.75 0.75,0.75l0,-1.5zm15.59,0.75l0,-0.75l0,0l0,0.75zm0.49,-0.41l0.74,0.15l0,0l-0.74,-0.15zm1.8,-9l-0.73,-0.14l0,0l0.73,0.14zm-0.49,-0.59l0,0.75l0,0l0,-0.75zm-19.39,-0.75c-0.41,0 -0.75,0.33 -0.75,0.75c0,0.41 0.34,0.75 0.75,0.75l0,-1.5zm3.25,20.08c0,0.14 -0.11,0.25 -0.25,0.25l0,1.5c0.97,0 1.75,-0.78 1.75,-1.75l-1.5,0zm-0.25,0.25c-0.14,0 -0.25,-0.11 -0.25,-0.25l-1.5,0c0,0.97 0.78,1.75 1.75,1.75l0,-1.5zm-0.25,-0.25c0,-0.14 0.11,-0.25 0.25,-0.25l0,-1.5c-0.97,0 -1.75,0.78 -1.75,1.75l1.5,0zm0.25,-0.25c0.14,0 0.25,0.11 0.25,0.25l1.5,0c0,-0.97 -0.78,-1.75 -1.75,-1.75l0,1.5zm14.25,0.25c0,0.14 -0.11,0.25 -0.25,0.25l0,1.5c0.97,0 1.75,-0.78 1.75,-1.75l-1.5,0zm-0.25,0.25c-0.14,0 -0.25,-0.11 -0.25,-0.25l-1.5,0c0,0.97 0.78,1.75 1.75,1.75l0,-1.5zm-0.25,-0.25c0,-0.14 0.11,-0.25 0.25,-0.25l0,-1.5c-0.97,0 -1.75,0.78 -1.75,1.75l1.5,0zm0.25,-0.25c0.14,0 0.25,0.11 0.25,0.25l1.5,0c0,-0.97 -0.78,-1.75 -1.75,-1.75l0,1.5zm-22,-20l4,0l0,-1.5l-4,0l0,1.5zm3.26,-0.62l3,17l1.48,-0.26l-3,-17l-1.48,0.26zm3.74,17.62l16,0l0,-1.5l-16,0l0,1.5zm0,-5.33l15.59,0l0,-1.5l-15.59,0l0,1.5zm15.59,0c0.29,0 0.57,-0.1 0.79,-0.29l-0.95,-1.16c0.05,-0.03 0.1,-0.05 0.16,-0.05l0,1.5zm0.79,-0.29c0.23,-0.18 0.38,-0.43 0.44,-0.72l-1.47,-0.29c0.01,-0.06 0.04,-0.11 0.08,-0.15l0.95,1.16zm0.44,-0.72l1.8,-9l-1.47,-0.29l-1.8,9l1.47,0.29zm1.8,-9c0.03,-0.18 0.03,-0.37 -0.02,-0.55l-1.45,0.37c-0.01,-0.04 -0.01,-0.08 0,-0.11l1.47,0.29zm-0.02,-0.55c-0.04,-0.18 -0.13,-0.34 -0.24,-0.49l-1.16,0.96c-0.03,-0.03 -0.04,-0.07 -0.05,-0.1l1.45,-0.37zm-0.24,-0.49c-0.12,-0.14 -0.27,-0.25 -0.44,-0.33l-0.64,1.35c-0.03,-0.01 -0.06,-0.04 -0.08,-0.06l1.16,-0.96zm-0.44,-0.33c-0.16,-0.08 -0.35,-0.12 -0.53,-0.12l0,1.5c-0.04,0 -0.07,-0.01 -0.11,-0.03l0.64,-1.35zm-0.53,-0.12l-19.39,0l0,1.5l19.39,0l0,-1.5z" fill="currentColor" id="svg_1"/>
  <rect fill="#000000" height="9.07" id="svg_2" stroke="#000000" transform="matrix(1 0 0 1 0 0)" width="17.79" x="6.52" y="3.05"/>
 </g>
</svg>