<svg width="19" height="19" viewBox="0 0 19 19" fill="none" xmlns="http://www.w3.org/2000/svg">
<path d="M8.43909 1.56696C8.87879 0.623367 10.2205 0.623368 10.6602 1.56696L12.099 4.65479C12.4233 5.35066 13.0834 5.83023 13.8454 5.92359L17.2267 6.33786C18.26 6.46446 18.6746 7.74046 17.9131 8.45023L15.421 10.7729C14.8594 11.2963 14.6073 12.0723 14.754 12.8259L15.4049 16.1697C15.6038 17.1915 14.5184 17.9802 13.608 17.4752L10.6289 15.8229C9.95757 15.4505 9.14168 15.4505 8.47032 15.8229L5.49125 17.4752C4.58089 17.9802 3.49546 17.1915 3.69436 16.1697L4.34526 12.8258C4.49194 12.0723 4.23982 11.2963 3.67821 10.7729L1.18615 8.45023C0.424614 7.74046 0.839212 6.46446 1.8725 6.33786L5.25384 5.92359C6.01586 5.83023 6.67593 5.35066 7.0002 4.65479L8.43909 1.56696Z" stroke="currentColor"/>
</svg>
