<svg width="16" height="16" viewBox="0 0 16 16" fill="none" xmlns="http://www.w3.org/2000/svg">
<path fill-rule="evenodd" clip-rule="evenodd" d="M16 2.91193C15.4121 3.17965 14.7791 3.3607 14.1152 3.4416C14.7932 3.02556 15.3135 2.36588 15.5586 1.58004C14.9238 1.96525 14.2222 2.2455 13.4728 2.39573C12.8755 1.74183 12.0218 1.3335 11.0771 1.3335C9.26548 1.3335 7.79574 2.84066 7.79574 4.69933C7.79574 4.9632 7.82391 5.21938 7.88026 5.46592C5.15208 5.32531 2.73381 3.98668 1.11381 1.94792C0.831132 2.44677 0.669596 3.02556 0.669596 3.64191C0.669596 4.80912 1.24905 5.83958 2.12995 6.4434C1.59277 6.42703 1.08563 6.27391 0.642365 6.02352V6.06493C0.642365 7.69632 1.77402 9.0571 3.27663 9.36527C3.00147 9.44424 2.71128 9.48373 2.41169 9.48373C2.20039 9.48373 1.99378 9.46351 1.79374 9.42402C2.21166 10.7607 3.42313 11.7344 4.86001 11.7604C3.7368 12.6637 2.32059 13.202 0.783234 13.202C0.518398 13.202 0.256383 13.1866 0 13.1558C1.45284 14.1092 3.17896 14.6668 5.03187 14.6668C11.0705 14.6668 14.3715 9.53862 14.3715 5.09033C14.3715 4.94394 14.3687 4.79756 14.3631 4.65407C15.0045 4.17929 15.5614 3.58702 16 2.91193Z" fill="white"/>
</svg>
